<svg width="17" height="17" viewBox="0 0 17 17" fill="none" xmlns="http://www.w3.org/2000/svg">
<path d="M7.62223 3.28303C7.86632 3.03894 8.25264 3.02353 8.51449 3.23713L8.56494 3.28303L13.2316 7.9497C13.492 8.21004 13.492 8.63205 13.2316 8.8924L8.56494 13.5591C8.30459 13.8194 7.88258 13.8194 7.62223 13.5591C7.36188 13.2987 7.36188 12.8767 7.62223 12.6164L11.1509 9.08772H3.42692C3.05873 9.08772 2.76025 8.78924 2.76025 8.42105C2.76025 8.05286 3.05873 7.75438 3.42692 7.75438H11.1509L7.62223 4.22574L7.57633 4.17528C7.36274 3.91343 7.37814 3.52712 7.62223 3.28303Z" fill="white"/>
</svg>
