<svg width="16" height="16" viewBox="0 0 16 16" fill="none" xmlns="http://www.w3.org/2000/svg">
<path d="M6.46654 11.5333C6.34431 11.4111 6.2832 11.2555 6.2832 11.0667C6.2832 10.8778 6.34431 10.7222 6.46654 10.6L9.06654 7.99999L6.46654 5.39999C6.34431 5.27777 6.2832 5.12221 6.2832 4.93333C6.2832 4.74444 6.34431 4.58888 6.46654 4.46666C6.58876 4.34444 6.74431 4.28333 6.9332 4.28333C7.12209 4.28333 7.27765 4.34444 7.39987 4.46666L10.4665 7.53333C10.5332 7.59999 10.5805 7.67221 10.6085 7.74999C10.6361 7.82777 10.6499 7.9111 10.6499 7.99999C10.6499 8.08888 10.6361 8.17221 10.6085 8.24999C10.5805 8.32777 10.5332 8.39999 10.4665 8.46666L7.39987 11.5333C7.27765 11.6555 7.12209 11.7167 6.9332 11.7167C6.74431 11.7167 6.58876 11.6555 6.46654 11.5333V11.5333Z" fill="#CA4B02"/>
</svg>
