<svg width="12" height="12" viewBox="0 0 12 12" fill="none" xmlns="http://www.w3.org/2000/svg">
<path d="M5.99985 7.47499C5.93318 7.47499 5.87068 7.46449 5.81235 7.44349C5.75401 7.42282 5.69985 7.38749 5.64985 7.33749L3.33735 5.02499C3.24568 4.93332 3.20201 4.81866 3.20635 4.68099C3.21035 4.54366 3.25818 4.42915 3.34985 4.33749C3.44151 4.24582 3.55818 4.19999 3.69985 4.19999C3.84151 4.19999 3.95818 4.24582 4.04985 4.33749L5.99985 6.28749L7.96235 4.32499C8.05401 4.23332 8.16868 4.18949 8.30635 4.19349C8.44368 4.19782 8.55818 4.24582 8.64985 4.33749C8.74151 4.42915 8.78735 4.54582 8.78735 4.68749C8.78735 4.82915 8.74151 4.94582 8.64985 5.03749L6.34985 7.33749C6.29985 7.38749 6.24568 7.42282 6.18735 7.44349C6.12901 7.46449 6.06651 7.47499 5.99985 7.47499Z" fill="white"/>
</svg>
